# xmcd
#
# Track frame offsets: 
#        150
#        8288
#        18729
#        26416
#        36520
#        49183
#        59437
#        72250
#        84851
#        97110
#        108188
#        115845
#
# Disc length: 1691 seconds
#
# Revision: 0
# Processed by: cddbd v1.5.2PL0 Copyright (c) Steve Scherf et al.
# Submitted via: ExactAudioCopyFreeDBPlugin 1.0
#
DISCID=9206990c
DTITLE=Johnny Cash - The Original Sun Albums 1957 - 1964 CD4
DYEAR=2017
DGENRE=Country
TTITLE0=I Can't Help It (If I'm Still In Love With You)
TTITLE1=You Win Again
TTITLE2=Hey, Good Lookin'
TTITLE3=I Could Never Be Ashamed Of You
TTITLE4=Next In Line
TTITLE5=Straight A's In Love
TTITLE6=Folsom Prison Blues
TTITLE7=Give My Love To Rose
TTITLE8=I Walk The Line
TTITLE9=I Love You Because
TTITLE10=Come In Stranger
TTITLE11=Mean Eyed Cat
EXTD=
EXTT0=
EXTT1=
EXTT2=
EXTT3=
EXTT4=
EXTT5=
EXTT6=
EXTT7=
EXTT8=
EXTT9=
EXTT10=
EXTT11=
PLAYORDER=
